<svg width="67" height="67" viewBox="0 0 67 67" fill="none" xmlns="http://www.w3.org/2000/svg">
<path opacity="0.2" d="M62.8125 34.5469C62.8125 37.1452 62.0072 39.6796 60.5074 41.8014C59.0076 43.9231 56.887 45.5278 54.4375 46.3946V46.3941V48.1562C54.4375 50.9327 53.3346 53.5955 51.3713 55.5588C49.408 57.522 46.7453 58.625 43.9688 58.625C41.1923 58.625 38.5295 57.522 36.5662 55.5588C34.603 53.5955 33.5 50.9327 33.5 48.1562C33.5 50.9327 32.3971 53.5955 30.4338 55.5588C28.4705 57.522 25.8078 58.625 23.0313 58.625C20.2548 58.625 17.592 57.522 15.6288 55.5588C13.6655 53.5955 12.5625 50.9327 12.5625 48.1562V46.3941V46.3946C10.1131 45.5278 7.99265 43.9231 6.49287 41.8014C4.99309 39.6797 4.18777 37.1453 4.18774 34.5471C4.18772 31.9489 4.99298 29.4145 6.49271 27.2928C7.99244 25.171 10.1129 23.5663 12.5623 22.6994L12.5625 18.8438C12.5625 16.0673 13.6655 13.4045 15.6288 11.4412C17.592 9.47795 20.2548 8.375 23.0313 8.375C25.8078 8.375 28.4705 9.47795 30.4338 11.4412C32.3971 13.4045 33.5 16.0673 33.5 18.8438C33.5 16.0673 34.603 13.4045 36.5662 11.4412C38.5295 9.47795 41.1923 8.375 43.9688 8.375C46.7453 8.375 49.408 9.47795 51.3713 11.4412C53.3346 13.4045 54.4375 16.0673 54.4375 18.8438L54.4378 22.6994C56.8871 23.5662 59.0076 25.1709 60.5074 27.2926C62.0072 29.4143 62.8125 31.9486 62.8125 34.5469Z" fill="#8DA5BB"/>
<path d="M64.9063 34.5469C64.9032 31.7736 64.115 29.0578 62.6329 26.7138C61.1508 24.3698 59.0354 22.4932 56.5313 21.3013V18.8437C56.5322 16.1443 55.6633 13.5165 54.0534 11.3498C52.4435 9.183 50.1782 7.59266 47.5934 6.8145C45.0087 6.03633 42.2419 6.11175 39.7034 7.02957C37.1648 7.9474 34.9896 9.65877 33.5001 11.91C32.0106 9.65877 29.8353 7.9474 27.2968 7.02957C24.7582 6.11175 21.9915 6.03633 19.4067 6.8145C16.8219 7.59266 14.5566 9.183 12.9467 11.3498C11.3368 13.5165 10.4679 16.1443 10.4688 18.8437V21.3013C7.96296 22.49 5.84584 24.3654 4.36339 26.7095C2.88093 29.0536 2.09399 31.7702 2.09399 34.5437C2.09399 37.3172 2.88093 40.0338 4.36339 42.3779C5.84584 44.722 7.96296 46.5974 10.4688 47.7862V48.1562C10.4679 50.8556 11.3368 53.4834 12.9467 55.6502C14.5566 57.817 16.8219 59.4073 19.4067 60.1855C21.9915 60.9636 24.7582 60.8882 27.2968 59.9704C29.8353 59.0526 32.0106 57.3412 33.5001 55.0899C34.9896 57.3412 37.1648 59.0526 39.7034 59.9704C42.2419 60.8882 45.0087 60.9636 47.5934 60.1855C50.1782 59.4073 52.4435 57.817 54.0534 55.6502C55.6633 53.4834 56.5322 50.8556 56.5313 48.1562V47.7862C59.0355 46.596 61.1512 44.7208 62.6334 42.3777C64.1156 40.0345 64.9037 37.3194 64.9063 34.5469ZM23.0313 56.5312C20.9669 56.5286 18.9761 55.7646 17.4399 54.3856C15.9037 53.0066 14.9301 51.1094 14.7055 49.0573C15.3828 49.1534 16.066 49.2021 16.7501 49.2031H18.8438C19.3991 49.2031 19.9317 48.9825 20.3243 48.5899C20.717 48.1972 20.9376 47.6646 20.9376 47.1094C20.9376 46.5541 20.717 46.0215 20.3243 45.6288C19.9317 45.2362 19.3991 45.0156 18.8438 45.0156H16.7501C14.2803 45.0151 11.8902 44.1417 10.0021 42.5496C8.11406 40.9576 6.84949 38.7494 6.4319 36.3152C6.01432 33.881 6.47059 31.3776 7.7201 29.2472C8.96962 27.1169 10.9319 25.4968 13.2603 24.6733C13.6685 24.5289 14.0219 24.2616 14.2718 23.9081C14.5218 23.5546 14.656 23.1323 14.656 22.6994L14.6563 18.8437C14.6563 16.6225 15.5387 14.4923 17.1093 12.9217C18.6799 11.3511 20.8101 10.4687 23.0313 10.4687C25.2525 10.4687 27.3827 11.3511 28.9533 12.9217C30.5239 14.4923 31.4063 16.6225 31.4063 18.8437V38.8027C29.1071 36.7348 26.1236 35.5916 23.0313 35.5937C22.476 35.5937 21.9435 35.8143 21.5508 36.207C21.1581 36.5996 20.9376 37.1322 20.9376 37.6875C20.9376 38.2428 21.1581 38.7753 21.5508 39.168C21.9435 39.5606 22.476 39.7812 23.0313 39.7812C25.2525 39.7812 27.3827 40.6636 28.9533 42.2342C30.5239 43.8048 31.4063 45.935 31.4063 48.1562C31.4063 50.3774 30.5239 52.5076 28.9533 54.0782C27.3827 55.6489 25.2525 56.5312 23.0313 56.5312ZM50.2501 45.0156H48.1563C47.601 45.0156 47.0685 45.2362 46.6758 45.6288C46.2831 46.0215 46.0626 46.5541 46.0626 47.1094C46.0626 47.6646 46.2831 48.1972 46.6758 48.5899C47.0685 48.9825 47.601 49.2031 48.1563 49.2031H50.2501C50.9341 49.2021 51.6173 49.1534 52.2946 49.0573C52.1205 50.6659 51.4841 52.1895 50.4625 53.4441C49.4408 54.6987 48.0777 55.6305 46.5378 56.1269C44.9978 56.6232 43.3471 56.6629 41.7851 56.2411C40.2231 55.8193 38.8168 54.954 37.736 53.7499C36.6553 52.5459 35.9465 51.0545 35.6953 49.4562C35.4441 47.8579 35.6613 46.221 36.3206 44.7435C36.9798 43.266 38.053 42.011 39.4103 41.1304C40.7675 40.2498 42.3509 39.7812 43.9688 39.7812C44.5241 39.7812 45.0567 39.5606 45.4493 39.168C45.842 38.7753 46.0626 38.2428 46.0626 37.6875C46.0626 37.1322 45.842 36.5996 45.4493 36.207C45.0567 35.8143 44.5241 35.5937 43.9688 35.5937C40.8765 35.5916 37.893 36.7348 35.5938 38.8027V18.8437C35.5938 16.6225 36.4762 14.4923 38.0468 12.9217C39.6174 11.3511 41.7476 10.4687 43.9688 10.4687C46.19 10.4687 48.3202 11.3511 49.8908 12.9217C51.4614 14.4923 52.3438 16.6225 52.3438 18.8437L52.3441 22.6994C52.3441 23.1323 52.4783 23.5546 52.7283 23.9081C52.9782 24.2616 53.3316 24.5289 53.7398 24.6733C56.0682 25.4968 58.0305 27.1169 59.28 29.2472C60.5295 31.3776 60.9858 33.881 60.5682 36.3152C60.1506 38.7494 58.8861 40.9576 56.998 42.5496C55.1099 44.1417 52.7198 45.0151 50.2501 45.0156ZM15.7032 33.5C15.1479 33.5 14.6153 33.2794 14.2227 32.8867C13.83 32.4941 13.6094 31.9615 13.6094 31.4062C13.6094 30.8509 13.83 30.3184 14.2227 29.9257C14.6153 29.5331 15.1479 29.3125 15.7032 29.3125C17.0909 29.3109 18.4214 28.7589 19.4027 27.7776C20.384 26.7963 20.936 25.4659 20.9376 24.0781V21.9844C20.9376 21.4291 21.1581 20.8965 21.5508 20.5038C21.9435 20.1112 22.476 19.8906 23.0313 19.8906C23.5866 19.8906 24.1192 20.1112 24.5118 20.5038C24.9045 20.8965 25.1251 21.4291 25.1251 21.9844V24.0781C25.1223 26.5761 24.1287 28.971 22.3624 30.7373C20.5961 32.5037 18.2012 33.4972 15.7032 33.5ZM53.3907 31.4062C53.3907 31.9615 53.1701 32.4941 52.7774 32.8867C52.3848 33.2794 51.8522 33.5 51.2969 33.5C48.7989 33.4972 46.4041 32.5037 44.6377 30.7373C42.8714 28.971 41.8778 26.5761 41.8751 24.0781V21.9844C41.8751 21.4291 42.0956 20.8965 42.4883 20.5038C42.881 20.1112 43.4135 19.8906 43.9688 19.8906C44.5241 19.8906 45.0567 20.1112 45.4493 20.5038C45.842 20.8965 46.0626 21.4291 46.0626 21.9844V24.0781C46.0641 25.4659 46.6161 26.7963 47.5974 27.7776C48.5787 28.7589 49.9092 29.3109 51.2969 29.3125C51.8522 29.3125 52.3848 29.5331 52.7774 29.9257C53.1701 30.3184 53.3907 30.8509 53.3907 31.4062Z" fill="#0B50B8"/>
</svg>
