<svg width="156" height="63" viewBox="0 0 156 63" fill="none" xmlns="http://www.w3.org/2000/svg">
<path d="M22.2907 22.0133C23.2911 22.0133 23.7913 22.4851 23.7913 23.4287C23.7913 25.1173 23.3286 26.6693 22.4033 28.0847C21.503 29.4753 20.2025 30.5927 18.5019 31.437C16.8262 32.2564 14.863 32.6661 12.6122 32.6661C10.4114 32.6661 8.36065 32.2067 6.45996 31.288C4.55926 30.3692 3.03371 28.9662 1.88329 27.079C0.732865 25.1918 0.157655 22.8576 0.157655 20.0764C0.157655 17.3698 0.707856 14.9487 1.80826 12.8132C2.93367 10.6528 4.43422 8.97667 6.3099 7.78474C8.2106 6.59282 10.2613 5.99686 12.4622 5.99686C13.9877 5.99686 15.3632 6.28242 16.5887 6.85355C17.8141 7.42468 18.8395 8.23171 19.6648 9.27465L19.6273 7.44952C19.6273 7.05221 19.7398 6.74181 19.9649 6.51832C20.215 6.29484 20.5776 6.1831 21.0528 6.1831C21.9531 6.1831 22.4033 6.64249 22.4033 7.56126V11.733C22.4033 12.8504 21.9531 13.4091 21.0528 13.4091C20.7277 13.4091 20.4526 13.347 20.2275 13.2229C20.0024 13.0987 19.7898 12.9001 19.5898 12.6269C17.614 9.96994 15.2382 8.64144 12.4622 8.64144C10.7615 8.64144 9.18595 9.15049 7.73542 10.1686C6.28489 11.1619 5.13447 12.54 4.28416 14.3031C3.45886 16.0413 3.04621 18.003 3.04621 20.1882C3.04621 22.3485 3.50888 24.1737 4.43422 25.6636C5.38456 27.1287 6.59751 28.2213 8.07305 28.9414C9.5736 29.6615 11.1617 30.0216 12.8373 30.0216C14.1878 30.0216 15.4758 29.7857 16.7012 29.3138C17.9266 28.842 18.927 28.1219 19.7023 27.1535C20.4776 26.1602 20.8652 24.9186 20.8652 23.4287C20.8652 22.9818 20.9903 22.6341 21.2404 22.3858C21.4904 22.1375 21.8406 22.0133 22.2907 22.0133Z" fill="#0B50B8"/>
<path d="M43.8186 18.4003C44.1688 19.7909 44.4063 21.5167 44.5314 23.5777C44.6564 25.6388 44.719 28.2585 44.719 31.437C44.719 31.7598 44.5814 32.0329 44.3063 32.2564C44.0562 32.4551 43.7186 32.5544 43.2934 32.5544C42.8683 32.5544 42.5182 32.4551 42.243 32.2564C41.993 32.0329 41.8679 31.7101 41.8679 31.288C41.8679 24.7572 41.5928 20.6103 41.0426 18.8473C40.7425 17.8292 40.3048 17.0966 39.7296 16.6497C39.1794 16.1779 38.4292 15.942 37.4788 15.942C36.1783 15.942 35.0779 16.3269 34.1776 17.0966C33.2773 17.8416 32.602 18.7976 32.1519 19.9647C31.7017 21.1318 31.4766 22.3485 31.4766 23.615V31.4742C31.4766 31.7722 31.3391 32.0205 31.064 32.2192C30.7889 32.4178 30.4512 32.5171 30.0511 32.5171C29.6259 32.5171 29.2758 32.4178 29.0007 32.2192C28.7506 32.0205 28.6256 31.7598 28.6256 31.437C28.6256 26.2968 28.6881 21.4546 28.8131 16.9104C28.9382 12.838 29.1383 8.74076 29.4134 4.6187C29.4884 3.74959 29.9636 3.31503 30.8389 3.31503C31.239 3.31503 31.5641 3.41436 31.8142 3.61302C32.0893 3.78684 32.2144 4.03515 32.1894 4.35797L31.9268 9.57263C31.7767 12.7759 31.6517 15.1101 31.5516 16.5752C32.1769 15.6564 33.0022 14.899 34.0275 14.3031C35.0529 13.6823 36.3284 13.3719 37.8539 13.3719C39.5046 13.3719 40.7925 13.7816 41.7179 14.6011C42.6682 15.4205 43.3685 16.6869 43.8186 18.4003Z" fill="#0B50B8"/>
<path d="M52.5388 11.4723C51.8886 11.4723 51.3384 11.2612 50.8882 10.839C50.438 10.3921 50.213 9.83336 50.213 9.1629C50.213 8.49245 50.438 7.94615 50.8882 7.52401C51.3384 7.07704 51.9136 6.85355 52.6138 6.85355C53.2891 6.85355 53.8393 7.06462 54.2644 7.48676C54.7146 7.9089 54.9397 8.4552 54.9397 9.12566C54.9397 9.79611 54.7021 10.3548 54.2269 10.8018C53.7768 11.2488 53.2141 11.4723 52.5388 11.4723ZM51.9761 32.3309C51.5259 32.3309 51.1633 32.2192 50.8882 31.9957C50.6381 31.7722 50.5131 31.4742 50.5131 31.1017L50.8882 15.2715C50.8882 14.8494 51.0132 14.5266 51.2633 14.3031C51.5384 14.0796 51.9011 13.9678 52.3512 13.9678C52.8014 13.9678 53.1515 14.0796 53.4016 14.3031C53.6767 14.5266 53.8143 14.8618 53.8143 15.3088L53.4391 31.1017C53.4141 31.499 53.2641 31.8094 52.989 32.0329C52.7389 32.2316 52.4013 32.3309 51.9761 32.3309Z" fill="#0B50B8"/>
<path d="M62.2047 32.2192C61.7796 32.2192 61.4295 32.1074 61.1544 31.8839C60.9043 31.6604 60.7792 31.3376 60.7792 30.9155L60.5541 4.39521C60.5541 3.97307 60.6917 3.65026 60.9668 3.42678C61.2419 3.17846 61.6045 3.0543 62.0547 3.0543C62.4798 3.0543 62.8175 3.17846 63.0676 3.42678C63.3176 3.65026 63.4427 3.96066 63.4427 4.35797L63.6303 30.9155C63.6303 31.3376 63.4927 31.6604 63.2176 31.8839C62.9675 32.1074 62.6299 32.2192 62.2047 32.2192Z" fill="#0B50B8"/>
<path d="M78.8599 32.7034C77.1093 32.7034 75.5087 32.3557 74.0582 31.6604C72.6077 30.9652 71.4447 29.8974 70.5694 28.4572C69.6941 27.0169 69.2564 25.229 69.2564 23.0935C69.2564 21.1566 69.6566 19.4805 70.4569 18.0651C71.2572 16.6497 72.3826 15.5695 73.8331 14.8245C75.3086 14.0548 77.0218 13.6699 78.9725 13.6699C80.373 13.6699 81.5984 13.8809 82.6488 14.3031C83.7242 14.7004 84.5745 15.2218 85.1998 15.8675V15.0853C85.2998 11.1867 85.3748 8.34346 85.4248 6.55557C85.4999 4.76769 85.6249 2.97981 85.8 1.19192C85.85 0.844277 86.0001 0.558712 86.2501 0.335226C86.5002 0.111742 86.8254 0 87.2255 0C87.6757 0 88.0383 0.124158 88.3134 0.372475C88.5885 0.595961 88.7135 0.893942 88.6885 1.26642C88.5135 3.07913 88.3509 6.19551 88.2009 10.6156C88.0508 15.0356 87.9758 19.0211 87.9758 22.572C87.9758 26.1975 88.0633 28.2833 88.2384 28.8296C88.3884 29.3759 88.5635 29.8353 88.7636 30.2078C88.9886 30.5554 89.2262 30.7293 89.4763 30.7293C89.5514 30.7293 89.5889 30.8658 89.5889 31.139C89.5889 31.5115 89.4263 31.8467 89.1012 32.1447C88.7761 32.4426 88.4134 32.5916 88.0133 32.5916C87.7382 32.5916 87.5006 32.5296 87.3005 32.4054C86.9504 32.2067 86.5878 31.8839 86.2126 31.437C85.8625 30.9652 85.6249 30.3195 85.4999 29.5001C84.8746 30.4934 83.9743 31.2756 82.7989 31.8467C81.6235 32.4178 80.3105 32.7034 78.8599 32.7034ZM78.7849 30.1705C79.8603 30.1705 80.8732 29.9471 81.8235 29.5001C82.7989 29.0283 83.5867 28.4075 84.1869 27.6377C84.7871 26.8431 85.0872 25.9864 85.0872 25.0676C85.0872 23.975 85.0997 23.1059 85.1247 22.4603L85.1622 19.3687C84.7371 18.5741 83.9618 17.8416 82.8364 17.1711C81.711 16.5007 80.423 16.1654 78.9725 16.1654C76.8967 16.1654 75.2336 16.7862 73.9832 18.0278C72.7327 19.2694 72.1075 20.9952 72.1075 23.2052C72.1075 24.7945 72.4326 26.1106 73.0828 27.1535C73.7581 28.1964 74.6084 28.9662 75.6338 29.4628C76.6591 29.9346 77.7095 30.1705 78.7849 30.1705Z" fill="#0B50B8"/>
<path d="M102.373 13.4091C103.974 13.4091 105.224 13.9182 106.124 14.9363C107.025 15.9295 107.475 17.1463 107.475 18.5865C107.475 19.9523 107.062 21.0325 106.237 21.8271C105.412 22.5969 104.349 22.9818 103.048 22.9818C102.548 22.9818 102.186 22.9073 101.96 22.7583C101.76 22.6093 101.66 22.3361 101.66 21.9388C101.66 21.2932 101.973 20.958 102.598 20.9331C104.224 20.7842 105.037 19.9895 105.037 18.5493C105.037 17.7795 104.824 17.1215 104.399 16.5752C103.974 16.0289 103.286 15.7557 102.336 15.7557C101.335 15.7557 100.46 16.1779 99.7096 17.0221C98.9844 17.8664 98.4092 18.9218 97.984 20.1882C97.5589 21.4298 97.3088 22.6589 97.2337 23.8757C97.0837 26.1602 97.0087 28.3206 97.0087 30.3568C97.0087 31.3749 96.9086 32.0453 96.7086 32.3681C96.5335 32.691 96.1709 32.8524 95.6207 32.8524C95.0705 32.8524 94.6828 32.7282 94.4577 32.4799C94.2577 32.2067 94.1576 31.7474 94.1576 31.1017L94.1201 23.9874C94.1201 22.3485 93.9951 20.1882 93.745 17.5064C93.5949 15.942 93.5074 14.8245 93.4824 14.1541C93.4574 13.7568 93.5699 13.4588 93.82 13.2601C94.0701 13.0367 94.4202 12.9249 94.8704 12.9249C95.6457 12.9249 96.0583 13.2974 96.1083 14.0423C96.2584 15.6067 96.3459 17.1339 96.3709 18.6238C96.7961 16.9849 97.5339 15.7061 98.5842 14.7873C99.6346 13.8685 100.898 13.4091 102.373 13.4091Z" fill="#0B50B8"/>
<path d="M121.728 32.7034C119.678 32.7034 117.902 32.2688 116.401 31.3997C114.926 30.5058 113.801 29.3387 113.025 27.8984C112.275 26.4334 111.9 24.8441 111.9 23.1307C111.9 21.3677 112.3 19.7536 113.1 18.2886C113.901 16.7987 115.038 15.6192 116.514 14.75C117.99 13.8809 119.69 13.4464 121.616 13.4464C123.317 13.4464 124.842 13.794 126.193 14.4893C127.543 15.1598 128.593 16.1034 129.344 17.3201C130.094 18.5369 130.469 19.9275 130.469 21.4919C130.469 22.2368 130.382 22.7707 130.207 23.0935C130.031 23.3915 129.594 23.5529 128.894 23.5777L114.601 23.8757C114.601 24.8193 114.888 25.7877 115.464 26.781C116.039 27.7743 116.852 28.6061 117.902 29.2766C118.977 29.9471 120.215 30.2823 121.616 30.2823C122.666 30.2823 123.567 30.1333 124.317 29.8353C125.067 29.5125 125.655 29.1524 126.08 28.7551C126.505 28.3578 127.018 27.7991 127.618 27.079C127.793 26.8555 128.068 26.7438 128.443 26.7438C128.769 26.7438 129.069 26.8679 129.344 27.1162C129.644 27.3646 129.794 27.6501 129.794 27.9729C129.794 28.2213 129.694 28.482 129.494 28.7551C128.693 29.8477 127.718 30.7789 126.568 31.5487C125.442 32.3185 123.829 32.7034 121.728 32.7034ZM127.656 21.3056C127.906 21.3056 128.031 21.1318 128.031 20.7841C128.031 19.2942 127.431 18.0899 126.23 17.1711C125.03 16.2275 123.517 15.7557 121.691 15.7557C120.315 15.7557 119.09 16.1034 118.015 16.7987C116.939 17.4939 116.101 18.3134 115.501 19.257C114.901 20.2006 114.601 20.9952 114.601 21.6408L127.656 21.3056Z" fill="#0B50B8"/>
<path d="M144.88 13.5954C149.106 13.5954 151.219 16.5628 151.219 22.4975V31.2135C151.219 32.0826 150.757 32.5171 149.831 32.5171C148.831 32.5171 148.331 32.095 148.331 31.2507V22.4603C148.331 20.2751 148.081 18.6735 147.581 17.6554C147.08 16.6124 146.18 16.091 144.88 16.091C143.504 16.091 142.379 16.6124 141.503 17.6554C140.628 18.6983 140.015 20.064 139.665 21.7526C139.44 22.8948 139.328 24.2978 139.328 25.9616L139.365 31.4742C139.365 31.8219 139.24 32.095 138.99 32.2937C138.74 32.4675 138.402 32.5544 137.977 32.5544C137.502 32.5544 137.139 32.4551 136.889 32.2564C136.639 32.0578 136.514 31.797 136.514 31.4742C136.514 29.2642 136.464 26.5699 136.364 23.3915C136.289 21.5539 136.252 19.9275 136.252 18.512C136.252 17.8913 136.176 17.407 136.026 17.0594C135.901 16.6869 135.639 16.1779 135.239 15.5322C135.139 15.3833 135.089 15.2094 135.089 15.0108C135.089 14.7128 135.251 14.4396 135.576 14.1913C135.926 13.9182 136.264 13.7816 136.589 13.7816C136.914 13.7816 137.252 14.0175 137.602 14.4893C137.877 14.8866 138.127 15.3708 138.352 15.942C138.602 16.4883 138.727 17.0097 138.727 17.5064V17.9161C139.178 16.6745 139.903 15.644 140.903 14.8245C141.904 14.0051 143.229 13.5954 144.88 13.5954Z" fill="#0B50B8"/>
<path d="M1.53477 57.4048V62.0675C1.53477 62.4314 1.36679 62.6664 1.03082 62.7726C0.93919 62.8029 0.824655 62.8181 0.687212 62.8181C0.54977 62.8181 0.397056 62.7574 0.229071 62.6361C0.0763569 62.5148 0 62.3252 0 62.0675V51.1728C0 50.8696 0.160349 50.6345 0.481049 50.4677C0.572677 50.4223 0.679577 50.3995 0.801748 50.3995H3.91711C6.51325 50.3995 8.09383 51.188 8.65888 52.7649C8.79632 53.1289 8.86504 53.5155 8.86504 53.9249C8.86504 54.3343 8.80395 54.7134 8.68178 55.0621C8.55961 55.4109 8.38399 55.7217 8.15492 55.9947C7.92585 56.2676 7.65096 56.4875 7.33026 56.6543C7.00957 56.8211 6.66596 56.9651 6.29945 57.0864C5.58169 57.2987 4.76467 57.4048 3.84839 57.4048H1.53477ZM4.12327 56.1766C5.11591 56.1766 5.84894 56.0098 6.32235 55.6763C6.94848 55.282 7.26154 54.6831 7.26154 53.8794C7.26154 53.1061 6.94848 52.5223 6.32235 52.1281C5.84894 51.8248 5.12355 51.658 4.14618 51.6277H1.53477V56.1766H4.12327Z" fill="#0B50B8"/>
<path d="M14.2671 53.5383C14.2671 53.8567 14.374 54.1599 14.5878 54.448C14.8016 54.721 15.0765 54.9484 15.4125 55.1304C15.7485 55.3123 16.1302 55.4715 16.5578 55.608C16.9854 55.7445 17.4359 55.8885 17.9094 56.0402C18.3828 56.1918 18.8485 56.3586 19.3067 56.5405C19.7648 56.7225 20.1619 56.9499 20.4979 57.2229C21.2309 57.8142 21.5974 58.6179 21.5974 59.6338C21.5974 60.119 21.4829 60.5815 21.2538 61.0212C21.0247 61.4458 20.704 61.8021 20.2917 62.0902C19.4518 62.6967 18.3293 63 16.9243 63C15.5957 63 14.4275 62.6664 13.4196 61.9992C12.7934 61.605 12.4804 61.2714 12.4804 60.9985C12.4804 60.7559 12.6025 60.5588 12.8469 60.4071C12.908 60.3465 12.9843 60.3161 13.076 60.3161C13.1676 60.3161 13.2669 60.354 13.3738 60.4299C13.4806 60.5057 13.6028 60.5967 13.7403 60.7028C13.893 60.8089 14.0762 60.9302 14.29 61.0667C14.5191 61.188 14.7558 61.3017 15.0002 61.4079C15.611 61.6505 16.2066 61.7642 16.7869 61.7491C17.3672 61.7339 17.833 61.6884 18.1842 61.6126C18.5355 61.5368 18.8485 61.4079 19.1234 61.2259C19.7037 60.8317 20.0015 60.3313 20.0168 59.7248C20.0168 58.9666 19.6427 58.3829 18.8944 57.9735C18.5584 57.7915 18.1766 57.6323 17.749 57.4958C17.3367 57.3442 16.8938 57.2001 16.4204 57.0637C15.9622 56.9272 15.5041 56.7604 15.046 56.5633C14.5878 56.3662 14.1831 56.1311 13.8319 55.8582C13.0836 55.2668 12.7094 54.5087 12.7094 53.5838C12.7094 53.0985 12.824 52.6436 13.0531 52.2191C13.2974 51.7945 13.6257 51.4458 14.0381 51.1728C14.8322 50.6118 15.8248 50.3237 17.016 50.3085C18.7416 50.3085 20.1313 50.862 21.1851 51.9689C21.2461 52.0599 21.2767 52.166 21.2767 52.2873C21.2767 52.3935 21.2691 52.4844 21.2538 52.5602C21.2538 52.6361 21.2156 52.7119 21.1392 52.7877C21.0323 52.9242 20.8873 52.9924 20.704 52.9924C20.536 52.9924 20.3528 52.8787 20.1542 52.6512C19.6503 52.2873 19.2456 52.0523 18.9402 51.9461C18.3293 51.7035 17.7337 51.5822 17.1534 51.5822C16.4051 51.5822 15.7637 51.7339 15.2292 52.0371C14.5878 52.401 14.2671 52.9014 14.2671 53.5383Z" fill="#0B50B8"/>
<path d="M30.9429 57.5413V62.0675C30.9429 62.4162 30.7826 62.6513 30.4619 62.7726C30.3703 62.8029 30.2481 62.8181 30.0954 62.8181C29.9427 62.8181 29.7823 62.7574 29.6143 62.6361C29.4463 62.5148 29.3624 62.3252 29.3624 62.0675V57.5641L25.3078 51.4458C25.2314 51.3548 25.1933 51.2562 25.1933 51.1501C25.1933 51.0439 25.2162 50.9454 25.262 50.8544C25.3078 50.7634 25.3765 50.68 25.4681 50.6042C25.6514 50.4677 25.8347 50.3995 26.0179 50.3995C26.3539 50.3995 26.5982 50.536 26.7509 50.8089L30.2557 56.3358H30.2786L33.8063 50.7634C33.959 50.5208 34.1728 50.3995 34.4477 50.3995C34.7532 50.3995 34.967 50.5208 35.0891 50.7634C35.1502 50.8392 35.1807 50.9151 35.1807 50.9909C35.1807 51.0818 35.1426 51.188 35.0662 51.3093L30.9429 57.5413Z" fill="#0B50B8"/>
<path d="M38.7274 56.677C38.7274 55.8885 38.8419 55.0925 39.071 54.2888C39.3 53.4852 39.6513 52.7953 40.1247 52.2191C41.1326 50.9454 42.5681 50.3085 44.4312 50.3085C45.5002 50.3085 46.5387 50.5436 47.5466 51.0136C47.8062 51.1198 47.936 51.2941 47.936 51.5367C47.936 51.9916 47.7528 52.2267 47.3862 52.2418C47.3099 52.2418 47.2412 52.2342 47.1801 52.2191C46.1264 51.8552 45.2864 51.6732 44.6603 51.6732C44.0494 51.6732 43.5378 51.7414 43.1255 51.8779C42.7132 52.0144 42.3543 52.2039 42.0489 52.4465C41.7435 52.6891 41.4838 52.9696 41.2701 53.2881C41.0563 53.6065 40.8883 53.9628 40.7661 54.3571C40.5065 55.0849 40.3767 55.8582 40.3767 56.677C40.3767 58.0114 40.6745 59.1334 41.2701 60.0432C41.9725 61.1198 43.0568 61.6581 44.5229 61.6581C45.5308 61.6581 46.4929 61.3927 47.4091 60.862C47.5313 60.8317 47.6459 60.8165 47.7528 60.8165C47.8749 60.8165 47.9818 60.8696 48.0735 60.9757C48.1804 61.0819 48.2338 61.2183 48.2338 61.3851C48.2338 61.5519 48.1727 61.7111 48.0505 61.8628C47.9284 61.9992 47.7604 62.1281 47.5466 62.2494C47.3481 62.3556 47.119 62.4541 46.8594 62.5451C46.615 62.6361 46.3554 62.7119 46.0805 62.7726C45.5002 62.9242 44.9505 63 44.4312 63C42.5528 63 41.1173 62.3707 40.1247 61.1122C39.1931 59.975 38.7274 58.4966 38.7274 56.677Z" fill="#0B50B8"/>
<path d="M61.5796 51.1501C61.5796 50.8013 61.7553 50.5739 62.1065 50.4677C62.1981 50.4526 62.3127 50.4374 62.4501 50.4223C62.5875 50.4071 62.7403 50.4602 62.9082 50.5815C63.0762 50.7028 63.1602 50.8923 63.1602 51.1501V62.0675C63.1602 62.2949 63.0915 62.4693 62.9541 62.5906C62.7708 62.7422 62.5723 62.8181 62.3585 62.8181C62.1599 62.8181 61.9767 62.7574 61.8087 62.6361C61.656 62.5148 61.5796 62.3252 61.5796 62.0675V57.0182H55.0053V62.0675C55.0053 62.2949 54.9442 62.4693 54.822 62.5906C54.6388 62.7422 54.4403 62.8181 54.2265 62.8181C54.0127 62.8181 53.8294 62.7574 53.6767 62.6361C53.524 62.5148 53.4476 62.3252 53.4476 62.0675V51.1501C53.4476 50.8013 53.6156 50.5739 53.9516 50.4677C54.0432 50.4526 54.1577 50.4374 54.2952 50.4223C54.4326 50.4071 54.5853 50.4602 54.7533 50.5815C54.9213 50.7028 55.0053 50.8923 55.0053 51.1501V55.7217H61.5796V51.1501Z" fill="#0B50B8"/>
<path d="M69.8511 54.8347C69.7137 55.4564 69.6449 56.0705 69.6449 56.677C69.6449 57.2684 69.7137 57.8825 69.8511 58.5193C70.0038 59.1562 70.2558 59.7172 70.607 60.2024C70.9583 60.6725 71.3935 61.0515 71.9127 61.3396C72.432 61.6277 73.0657 61.7718 73.814 61.7718C74.5623 61.7718 75.2037 61.6277 75.7382 61.3396C76.2727 61.0515 76.708 60.6725 77.0439 60.2024C77.3799 59.7172 77.6242 59.1562 77.7769 58.5193C77.9449 57.8825 78.0289 57.2684 78.0289 56.677C78.0289 56.0705 77.9449 55.4564 77.7769 54.8347C77.6242 54.1979 77.3799 53.6444 77.0439 53.1743C76.708 52.6891 76.2727 52.3025 75.7382 52.0144C75.2037 51.7263 74.5623 51.5822 73.814 51.5822C73.0657 51.5822 72.432 51.7263 71.9127 52.0144C71.3935 52.3025 70.9583 52.6891 70.607 53.1743C70.2558 53.6444 70.0038 54.1979 69.8511 54.8347ZM67.9269 56.6315C67.9269 55.7521 68.0567 54.9181 68.3163 54.1296C68.5759 53.3411 68.9654 52.6664 69.4846 52.1054C70.523 50.9226 71.9586 50.3237 73.7911 50.3085C75.6542 50.3085 77.1126 50.9075 78.1664 52.1054C78.6703 52.6664 79.0445 53.3411 79.2888 54.1296C79.5484 54.9181 79.6782 55.7521 79.6782 56.6315C79.6782 57.5261 79.5484 58.3829 79.2888 59.2017C79.0445 60.0053 78.6703 60.6801 78.1664 61.2259C77.1126 62.4086 75.6542 63 73.7911 63C71.9433 63 70.5078 62.4086 69.4846 61.2259C68.9654 60.6497 68.5759 59.9674 68.3163 59.1789C68.0567 58.3753 67.9269 57.5261 67.9269 56.6315Z" fill="#0B50B8"/>
<path d="M85.2944 62.8181C84.9431 62.8181 84.6988 62.6664 84.5613 62.3632C84.5155 62.2722 84.4926 62.1736 84.4926 62.0675V51.1501C84.4926 50.8013 84.653 50.5739 84.9737 50.4677C85.0653 50.4526 85.1875 50.4374 85.3402 50.4223C85.4929 50.4071 85.6456 50.4602 85.7983 50.5815C85.951 50.7028 86.0274 50.8923 86.0274 51.1501V61.5444H91.7083C91.9374 61.5444 92.0978 61.6126 92.1894 61.7491C92.2963 61.8704 92.3497 62.0144 92.3497 62.1812C92.3497 62.3328 92.2963 62.4769 92.1894 62.6133C92.0825 62.7498 91.9221 62.8181 91.7083 62.8181H85.2944Z" fill="#0B50B8"/>
<path d="M97.8337 54.8347C97.6962 55.4564 97.6275 56.0705 97.6275 56.677C97.6275 57.2684 97.6962 57.8825 97.8337 58.5193C97.9864 59.1562 98.2384 59.7172 98.5896 60.2024C98.9408 60.6725 99.3761 61.0515 99.8953 61.3396C100.415 61.6277 101.048 61.7718 101.797 61.7718C102.545 61.7718 103.186 61.6277 103.721 61.3396C104.255 61.0515 104.691 60.6725 105.026 60.2024C105.362 59.7172 105.607 59.1562 105.76 58.5193C105.927 57.8825 106.011 57.2684 106.011 56.677C106.011 56.0705 105.927 55.4564 105.76 54.8347C105.607 54.1979 105.362 53.6444 105.026 53.1743C104.691 52.6891 104.255 52.3025 103.721 52.0144C103.186 51.7263 102.545 51.5822 101.797 51.5822C101.048 51.5822 100.415 51.7263 99.8953 52.0144C99.3761 52.3025 98.9408 52.6891 98.5896 53.1743C98.2384 53.6444 97.9864 54.1979 97.8337 54.8347ZM95.9095 56.6315C95.9095 55.7521 96.0393 54.9181 96.2989 54.1296C96.5585 53.3411 96.9479 52.6664 97.4671 52.1054C98.5056 50.9226 99.9411 50.3237 101.774 50.3085C103.637 50.3085 105.095 50.9075 106.149 52.1054C106.653 52.6664 107.027 53.3411 107.271 54.1296C107.531 54.9181 107.661 55.7521 107.661 56.6315C107.661 57.5261 107.531 58.3829 107.271 59.2017C107.027 60.0053 106.653 60.6801 106.149 61.2259C105.095 62.4086 103.637 63 101.774 63C99.9258 63 98.4903 62.4086 97.4671 61.2259C96.9479 60.6497 96.5585 59.9674 96.2989 59.1789C96.0393 58.3753 95.9095 57.5261 95.9095 56.6315Z" fill="#0B50B8"/>
<path d="M114.514 60.3616C114.88 60.8165 115.354 61.1653 115.934 61.4079C116.514 61.6505 117.247 61.7718 118.133 61.7718C119.019 61.7718 119.905 61.6353 120.79 61.3624V57.5868H118.316C118.133 57.5868 117.988 57.5261 117.881 57.4048C117.774 57.2835 117.721 57.1546 117.721 57.0182C117.721 56.8514 117.767 56.7149 117.858 56.6088C117.95 56.5026 118.103 56.4496 118.316 56.4496H121.684C122.127 56.4496 122.348 56.6618 122.348 57.0864V61.6353C122.348 62.0599 122.15 62.3025 121.753 62.3632C120.348 62.7877 119.133 63 118.11 63C117.087 63 116.194 62.8711 115.43 62.6133C114.667 62.3556 114.025 61.9689 113.506 61.4534C112.376 60.3313 111.811 58.724 111.811 56.6315C111.811 54.8878 112.33 53.4245 113.369 52.2418C114.438 50.9681 115.98 50.3237 117.996 50.3085C119.309 50.3085 120.485 50.5208 121.523 50.9454C121.737 51.0667 121.844 51.2259 121.844 51.423C121.844 51.605 121.791 51.7642 121.684 51.9007C121.592 52.0371 121.462 52.1054 121.294 52.1054H121.203C121.172 52.1054 121.088 52.0902 120.951 52.0599C120.813 52.0144 120.615 51.9689 120.355 51.9234C120.096 51.8627 119.828 51.8097 119.553 51.7642C118.943 51.6732 118.454 51.6277 118.087 51.6277C116.53 51.6277 115.346 52.1433 114.537 53.1743C114.17 53.6444 113.903 54.1979 113.735 54.8347C113.582 55.4564 113.506 56.1008 113.506 56.768C113.506 57.4352 113.582 58.0872 113.735 58.724C113.903 59.3609 114.163 59.9067 114.514 60.3616Z" fill="#0B50B8"/>
<path d="M127.638 51.1501C127.638 50.8317 127.791 50.6042 128.096 50.4677C128.188 50.4526 128.318 50.4374 128.486 50.4223C128.654 50.4071 128.806 50.4602 128.944 50.5815C129.097 50.7028 129.173 50.8923 129.173 51.1501V62.0675C129.173 62.4314 129.013 62.6664 128.692 62.7726C128.6 62.8029 128.478 62.8181 128.325 62.8181C128.173 62.8181 128.02 62.7574 127.867 62.6361C127.715 62.5148 127.638 62.3252 127.638 62.0675V51.1501Z" fill="#0B50B8"/>
<path d="M135.819 53.5383C135.819 53.8567 135.926 54.1599 136.14 54.448C136.354 54.721 136.629 54.9484 136.965 55.1304C137.301 55.3123 137.683 55.4715 138.11 55.608C138.538 55.7445 138.988 55.8885 139.462 56.0402C139.935 56.1918 140.401 56.3586 140.859 56.5405C141.317 56.7225 141.714 56.9499 142.05 57.2229C142.783 57.8142 143.15 58.6179 143.15 59.6338C143.15 60.119 143.035 60.5815 142.806 61.0212C142.577 61.4458 142.256 61.8021 141.844 62.0902C141.004 62.6967 139.882 63 138.477 63C137.148 63 135.98 62.6664 134.972 61.9992C134.346 61.605 134.033 61.2714 134.033 60.9985C134.033 60.7559 134.155 60.5588 134.399 60.4071C134.46 60.3465 134.537 60.3161 134.628 60.3161C134.72 60.3161 134.819 60.354 134.926 60.4299C135.033 60.5057 135.155 60.5967 135.293 60.7028C135.445 60.8089 135.629 60.9302 135.842 61.0667C136.071 61.188 136.308 61.3017 136.552 61.4079C137.163 61.6505 137.759 61.7642 138.339 61.7491C138.919 61.7339 139.385 61.6884 139.737 61.6126C140.088 61.5368 140.401 61.4079 140.676 61.2259C141.256 60.8317 141.554 60.3313 141.569 59.7248C141.569 58.9666 141.195 58.3829 140.447 57.9735C140.111 57.7915 139.729 57.6323 139.301 57.4958C138.889 57.3442 138.446 57.2001 137.973 57.0637C137.515 56.9272 137.056 56.7604 136.598 56.5633C136.14 56.3662 135.735 56.1311 135.384 55.8582C134.636 55.2668 134.262 54.5087 134.262 53.5838C134.262 53.0985 134.376 52.6436 134.605 52.2191C134.85 51.7945 135.178 51.4458 135.59 51.1728C136.384 50.6118 137.377 50.3237 138.568 50.3085C140.294 50.3085 141.684 50.862 142.737 51.9689C142.798 52.0599 142.829 52.166 142.829 52.2873C142.829 52.3935 142.821 52.4844 142.806 52.5602C142.806 52.6361 142.768 52.7119 142.692 52.7877C142.585 52.9242 142.44 52.9924 142.256 52.9924C142.088 52.9924 141.905 52.8787 141.707 52.6512C141.203 52.2873 140.798 52.0523 140.492 51.9461C139.882 51.7035 139.286 51.5822 138.706 51.5822C137.957 51.5822 137.316 51.7339 136.782 52.0371C136.14 52.401 135.819 52.9014 135.819 53.5383Z" fill="#0B50B8"/>
<path d="M146.998 51.6959C146.768 51.6959 146.6 51.6277 146.494 51.4912C146.387 51.3548 146.333 51.2107 146.333 51.0591C146.333 50.8923 146.387 50.7407 146.494 50.6042C146.6 50.4677 146.768 50.3995 146.998 50.3995H155.359C155.572 50.3995 155.733 50.4677 155.84 50.6042C155.947 50.7407 156 50.8923 156 51.0591C156 51.2107 155.939 51.3548 155.817 51.4912C155.71 51.6277 155.557 51.6959 155.359 51.6959H151.968V62.0675C151.968 62.4162 151.816 62.6513 151.51 62.7726C151.419 62.8029 151.296 62.8181 151.144 62.8181C150.991 62.8181 150.831 62.7574 150.663 62.6361C150.495 62.5148 150.411 62.3252 150.411 62.0675V51.6959H146.998Z" fill="#0B50B8"/>
</svg>
