<svg width="559" height="457" viewBox="0 0 559 457" fill="none" xmlns="http://www.w3.org/2000/svg">
<path d="M543 76C543 184.579 542.971 210.333 549.696 318.69C552.069 356.919 558 393.935 558 432.302" stroke="#0B50B8" stroke-linecap="round"/>
<path d="M557.573 432.76C505.596 438.797 453.983 441.061 401.767 437.455C339.569 433.16 277.326 434.331 215.15 438.042C174.966 440.44 133.841 443.147 93.8711 447.667C73.351 449.987 52.9971 456 32.4667 456" stroke="#0B50B8" stroke-linecap="round"/>
<path d="M32.4671 455.999C32.4671 396.631 33.6667 336.215 25.5838 277.366C17.5144 218.616 9.61422 160.487 8.86688 101.081C8.6638 84.9379 11.6243 59.9351 3.95019 45.0967C1.27608 39.9262 1.00018 36.1161 1.00018 30.3085C1.00018 15.5772 5.7546 19.256 20.0115 18.2197C74.7465 14.241 128.498 10.2387 183.465 10.2387C218.355 10.2387 253.219 8.12613 288.028 8.12613C309.162 8.12613 332.927 8.574 353.802 4.95722C373.442 1.55459 393.712 4.31832 413.568 1.31885" stroke="#0B50B8" stroke-linecap="round"/>
</svg>
