<svg width="587" height="582" viewBox="0 0 587 582" fill="none" xmlns="http://www.w3.org/2000/svg">
<path d="M569.651 13.2922C568.212 146.353 567.502 279.785 573.059 412.649C575.02 459.524 580.698 504.953 580.189 551.97" stroke="#0B50B8" stroke-linecap="round"/>
<path d="M579.739 552.528C525.607 559.341 471.905 561.535 417.653 556.529C353.03 550.566 288.287 551.301 223.582 555.149C181.762 557.636 138.96 560.491 97.3353 565.58C75.9656 568.193 54.7198 575.333 33.3701 575.102" stroke="#0B50B8" stroke-linecap="round"/>
<path d="M33.3697 575.101C34.1566 502.347 36.2047 428.322 28.5793 356.113C20.9666 284.026 13.5216 212.701 13.5319 139.892C13.5346 120.107 16.9447 89.4997 9.16097 71.2293C6.44867 64.8628 6.21227 60.1906 6.28925 53.0735C6.4845 35.0206 11.3799 39.5824 26.2194 38.4727C83.1914 34.2126 139.141 29.9125 196.302 30.5307C232.583 30.9231 268.867 28.7263 305.064 29.1178C327.043 29.3555 351.75 30.1716 373.506 25.9742C393.974 22.0252 415.016 25.6401 435.705 22.1876C464.841 17.3254 497.135 10.4812 526.394 10.7976C537.688 10.9198 548.264 5.85565 559.059 5.97241" stroke="#0B50B8" stroke-linecap="round"/>
</svg>
