<svg width="433" height="506" viewBox="0 0 433 506" fill="none" xmlns="http://www.w3.org/2000/svg">
<path d="M119.289 340.517C120.76 342.459 123.067 346.901 125.516 347.99C127.328 348.795 129.01 349.291 130.497 350.48C133.831 353.148 138.687 353.105 142.536 354.816C147.866 357.185 153.614 357.224 159.141 359.198C161.895 360.182 170.253 360.635 172.84 359.198C174.91 358.048 177.075 357.823 179.067 356.938C180.652 356.233 184.395 355.351 185.525 354.447C187.15 353.147 189.166 352.173 191.106 351.311C193.467 350.261 195.221 347.767 197.748 347.206C201.724 346.322 206.859 342.614 209.786 339.687C212.359 337.114 215.343 334.356 218.273 332.215C222.148 329.383 224.49 324.834 229.067 322.898C233.799 320.895 236.713 314.514 240.183 311.044C244.249 306.977 246.4 303.086 248.624 297.806C250.346 293.715 252.184 288.389 252.913 284.014C253.25 281.992 254.62 279.643 254.62 277.788C254.62 275.315 254.84 271.832 255.865 269.577C256.864 267.379 256.951 264.616 257.756 262.29C258.953 258.833 260.347 255.151 260.432 251.496C260.57 245.535 263.753 239.623 263.753 233.83C263.753 229.186 265.373 222.712 267.258 218.471C268.486 215.707 268.743 212.17 269.749 209.154C271.652 203.443 273.808 198.96 277.867 194.394" stroke="#F4F8FB" stroke-linecap="round"/>
<path d="M258.771 259.153C271.262 253.974 279.183 241.166 283.678 228.803C286.261 221.701 287.83 213.075 287.83 205.602C287.83 196.193 292.523 186.995 291.981 177.789C291.835 175.301 289.512 171.353 288.245 169.071C286.327 165.619 285.534 162.698 282.018 160.354" stroke="#F4F8FB" stroke-linecap="round"/>
<path d="M242.166 316.44C242.166 323.482 242.166 330.524 242.166 337.566C242.166 340.662 241.555 344.33 242.812 347.16C246.487 355.429 251.246 362.318 256.096 370.222C260.321 377.107 267.215 382.54 272.701 388.026C278.201 393.526 285.705 393.621 291.981 397.805" stroke="#F4F8FB" stroke-linecap="round"/>
<path d="M289.49 393.653C292.248 400.467 293.642 405.411 293.642 412.749C293.642 417.325 293.191 423.519 291.335 427.694C289.677 431.424 287.627 434.077 284.693 437.011C281.781 439.923 280.324 443.139 278.236 446.42C274.991 451.52 270.705 456.146 267.858 461.365C265.55 465.595 261.224 468.84 258.448 472.85C254.3 478.841 249.005 484.784 243.827 489.962" stroke="#F4F8FB" stroke-linecap="round"/>
<path d="M290.32 392.823C300.424 392.994 311.347 399.043 319.794 404.493C329.018 410.444 337.071 417.488 346.501 423.22C366.606 435.44 385.694 449.123 405.725 461.365C409.957 463.951 413.268 467.573 417.994 469.391C421.484 470.733 425.854 476.378 427.127 479.815C427.986 482.134 429.849 484.311 430.448 486.641C431.112 489.225 430.559 492.293 430.633 494.944C430.678 496.592 430.994 504.257 432.293 504.907" stroke="#F4F8FB" stroke-linecap="round"/>
<path d="M54.0021 191.545C52.9925 184.099 52.0771 178.791 54.1866 171.619C55.2464 168.016 57.1832 164.237 58.7991 160.826C61.6446 154.819 58.9836 147.43 58.9836 141.315C58.9836 134.184 66.25 128.566 71.3912 124.71C77.5481 120.092 75.4498 113.802 77.8949 107.69C80.4214 101.373 78.2264 94.7198 83.5221 89.4242C87.8778 85.0684 91.3634 81.9439 91.3634 75.725C91.3634 67.3474 94.2367 65.1556 101.326 61.6108C109.275 57.6364 120.775 57.0444 129.555 57.0444" stroke="#F4F8FB" stroke-linecap="round"/>
<path d="M86.9096 39.1367C79.6819 41.8902 73.4773 43.9887 72.0113 52.0517C70.4615 60.5752 63.656 55.7662 58.8656 60.0775C55.2267 63.3525 56.1904 70.0627 56.1904 74.4223C56.1904 79.8943 55.0628 85.5017 52.4543 90.1971C51.3171 92.2439 49.1486 94.6945 48.672 96.8391C48.2301 98.8278 46.0021 103.112 44.5669 104.726C42.5501 106.995 44.5669 109.12 44.5669 111.368C44.5669 113.883 45.101 114.984 44.5208 117.595C43.5817 121.821 39.1158 129.521 42.9064 133.785C45.8324 137.077 46.2274 145.35 46.2274 149.56" stroke="#F4F8FB" stroke-linecap="round"/>
<path d="M101.024 48.2695C96.3879 49.7832 73.761 58.1446 78.1918 66.1199C79.5944 68.6446 78.8873 76.0612 76.7619 77.974C74.1562 80.3192 70.0203 82.4573 67.8136 85.2156C62.9781 91.26 65.7101 99.4686 61.3561 104.911C56.1744 111.388 52.8691 115.938 52.8691 124.652" stroke="#F4F8FB" stroke-linecap="round"/>
<path d="M279.527 35.8158C279.72 24.0505 284.509 12.6325 284.509 0.945312" stroke="#F4F8FB" stroke-linecap="round"/>
<path d="M291.151 57.4027C303.837 54.0445 316.025 47.4564 327.682 41.6279" stroke="#F4F8FB" stroke-linecap="round"/>
<path d="M302.774 75.6679C312.027 74.2971 322.518 73.9472 331.787 75.2989C335.759 75.8781 339.426 77.3284 343.457 77.3284" stroke="#F4F8FB" stroke-linecap="round"/>
<path d="M35.434 272.437C26.92 272.562 18.1103 273.473 9.69622 274.743C7.65911 275.051 1.48844 274.738 0.563477 276.588" stroke="#F4F8FB" stroke-linecap="round"/>
<path d="M42.9062 294.023C36.0322 300.174 29.4988 306.601 22.9802 313.119C21.0449 315.055 18.0477 317.124 17.1685 319.761" stroke="#F4F8FB" stroke-linecap="round"/>
<path d="M57.8507 310.628C55.3634 321.407 53.7801 332.64 50.5629 343.193C49.474 346.764 49.5063 350.564 47.8877 353.801" stroke="#F4F8FB" stroke-linecap="round"/>
</svg>
