<svg width="183" height="153" viewBox="0 0 183 153" fill="none" xmlns="http://www.w3.org/2000/svg">
<path opacity="0.2" d="M180 8.99999C164.8 19.4 153 31 144.6 43.8C136.2 56.6 132 72 132 90L150 84C159.2 84 167 87.2 173.4 93.6C179.8 100 183 107.8 183 117C183 127.4 179.6 136 172.8 142.8C166 149.6 157.4 153 147 153C135 153 125.4 149.4 118.2 142.2C111.4 135 108 124.6 108 111C108 85.4 113.6 63.6 124.8 45.6C136.4 27.2 152.8 12 174 0L180 8.99999ZM72 8.99999C56.8 19.4 45 31 36.6 43.8C28.2 56.6 24 72 24 90L42 84C51.2 84 59 87.2 65.4 93.6C71.8 100 75 107.8 75 117C75 127.4 71.6 136 64.8 142.8C58 149.6 49.4 153 39 153C27 153 17.4 149.4 10.2 142.2C3.4 135 0 124.6 0 111C0 85.4 5.6 63.6 16.8 45.6C28.4 27.2 44.8 12 66 0L72 8.99999Z" fill="#F4F8FB"/>
</svg>
