<svg width="444" height="695" viewBox="0 0 444 695" fill="none" xmlns="http://www.w3.org/2000/svg">
<path d="M3.56856 261C3.56856 234.244 1 207.77 1 181.081C1 170.344 4.46043 160.068 8.06355 149.749C12.3447 137.488 16.1053 125.093 20.5496 112.854C27.1713 94.6199 30.1827 73.0767 44.0234 57.1722C49.1542 51.2764 56.6957 47.8295 62.3601 42.3577C67.0133 37.8626 71.744 34.0978 76.8439 30.0406C100.643 11.1076 135.206 7.74727 166.672 2.96574C184.774 0.215107 205.414 0.805054 223.751 2.0008C247.701 3.56253 266.795 9.65108 288.608 17.3262C299.541 21.1735 309.738 25.6728 319.216 31.5164C321.709 33.0534 327.918 41.1229 330.061 41.336C349.743 43.2932 369.159 54.8117 385 63.8132" stroke="#0B50B8" stroke-linecap="round"/>
<path d="M3.73852 260C4.26088 289.23 4.94938 318.481 7.27701 347.658C8.38731 361.576 8.49151 375.441 10.5715 389.285C13.0782 405.97 5.56759 424.137 4.77566 440.933C3.51553 467.66 2.58483 494.705 4.59264 521.434C6.61489 548.354 7.21063 576.457 4.2876 603.366C1.7559 626.672 3.73852 650.769 3.73852 673.79C3.73852 677.013 2.5094 686.179 7.03298 686.179C15.3087 686.179 24.1343 685.355 32.2905 684.196C47.1482 682.086 61.7081 682.214 76.7047 682.214C87.1623 682.214 97.5005 680.81 107.941 680.452C126.811 679.805 145.752 680.206 164.557 681.719C191.256 683.866 217.982 685.384 244.661 687.665C256.847 688.707 269.045 689.87 281.205 691.134C289.309 691.976 298.973 695.156 307.073 693.557C321.587 690.691 338.135 691.134 352.951 691.134C361.051 691.134 368.874 690.479 376.867 690.143C382.455 689.908 387.528 687.017 392.973 686.124C399.15 685.11 405.958 682.53 412.252 682.214C417.517 681.95 423.386 680.232 428.175 680.232C431.103 680.232 434.032 680.232 436.96 680.232C441.838 680.232 440.662 678.328 441.658 674.285C442.541 670.697 442.841 664.235 441.658 660.63C440.456 656.97 441.902 653.759 441.902 649.948C441.902 644.169 443 638.564 443 632.658" stroke="#0B50B8" stroke-linecap="round"/>
</svg>
