<svg width="387" height="472" viewBox="0 0 387 472" fill="none" xmlns="http://www.w3.org/2000/svg">
<path d="M11.8293 13.4482C99.5182 14.6269 187.453 15.2195 275.038 10.773C305.939 9.20425 335.899 4.64679 366.884 5.0633" stroke="#0B50B8" stroke-linecap="round"/>
<path d="M367.25 5.42566C371.541 48.9508 372.789 92.1307 369.29 135.75C365.122 187.71 365.369 239.766 367.667 291.793C369.152 325.418 370.876 359.834 374.076 393.303C375.72 410.486 380.347 427.569 380.116 444.735" stroke="#0B50B8" stroke-linecap="round"/>
<path d="M380.115 444.735C332.17 444.091 283.391 442.432 235.774 448.551C188.237 454.66 141.203 460.635 93.2177 460.615C80.1784 460.61 60.0193 457.863 47.9496 464.118C43.7438 466.298 40.6637 466.487 35.9734 466.424C24.0764 466.264 27.1009 462.329 26.4241 450.397C23.8262 404.588 21.198 359.602 21.8159 313.642C22.208 284.469 20.8937 255.296 21.2849 226.191C21.5225 208.52 22.1513 188.654 19.465 171.16C16.9378 154.702 19.3976 137.784 17.1984 121.149C14.1011 97.7209 9.70931 71.7538 10.0255 48.2285C10.1476 39.148 6.84902 30.6435 6.9657 21.9634" stroke="#0B50B8" stroke-linecap="round"/>
</svg>
