<?xml version="1.0" encoding="UTF-8"?>
<svg id="_Слой_1" data-name="Слой 1" xmlns="http://www.w3.org/2000/svg" viewBox="0 0 183 72">
  <defs>
    <style>
      .cls-1 {
        fill: #fff;
      }
    </style>
  </defs>
  <path class="cls-1" d="m183,12.5V0H0v12.5h11v17c4.33-5.67,8.67-11.33,13-17h14c-6.33,7.33-12.67,14.67-19,22,6.33,8.33,12.67,16.67,19,25h-14c-4.33-6-8.67-12-13-18v18H0v12.5h183v-12.5h-12V12.5h12Zm-113,47c-1-3.33-2-6.67-3-10h-13c-1,3.33-2,6.67-3,10h-12c5.33-15.67,10.67-31.33,16-47h11c5.67,15.67,11.33,31.33,17,47h-13Zm52,0h-12c-4.67-8.33-9.33-16.67-14-25v25h-12V12.5h12c4.67,9,9.33,18,14,27V12.5h12v47Zm30,0c-4.33-6-8.67-12-13-18v18h-11V12.5h11v17c4.33-5.67,8.67-11.33,13-17h14c-6,7.33-12,14.67-18,22,6.33,8.33,12.67,16.67,19,25h-15Z"/>
  <path class="cls-1" d="m65,40.5h-9c1.33-5.33,2.67-10.67,4-16h1c1.33,5.33,2.67,10.67,4,16Z"/>
</svg>