<?xml version="1.0" encoding="UTF-8"?>
<svg id="_Слой_1" data-name="Слой 1" xmlns="http://www.w3.org/2000/svg" viewBox="0 0 183 72">
  <defs>
    <style>
      .cls-1 {
        fill: #fff;
      }
    </style>
  </defs>
  <path class="cls-1" d="m163,47c-6.08,0-11-4.92-11-11s4.92-11,11-11c4.12,0,7.7,2.26,9.58,5.6l7.86-4.38c-3.42-6.1-9.95-10.22-17.44-10.22-11.05,0-20,8.95-20,20s8.95,20,20,20c7.49,0,14.02-4.12,17.44-10.22l-7.86-4.38c-1.88,3.34-5.46,5.6-9.58,5.6Z"/>
  <path class="cls-1" d="m85,16v22c0,11.05-8.95,20-20,20s-20-8.95-20-20v-22h8v22c.4,6.39,5.87,11.26,12,11,5.78-.25,10.63-4.99,11-11v-22h9Z"/>
  <polygon class="cls-1" points="41 16 41 56 32 56 32 36 26.75 46 16.25 46 11 36 11 56 2 56 2 16 11 16 21.5 36 32 16 41 16"/>
  <rect class="cls-1" x="32" y="16" width="9" height="40"/>
  <rect class="cls-1" x="128.77" y="16" width="9" height="40"/>
  <path class="cls-1" d="m116.02,28.72c2.95-1.01,5.9-2.03,8.85-3.04-.76-1.72-2.78-5.61-7.15-8.43-4.93-3.18-9.84-3.04-12.26-2.94-3.06.13-12.29.51-16.03,7.43-1.97,3.65-2.28,8.86.21,12.71,1.92,2.97,4.91,4.2,6.25,4.75,1.88.77,2.96.79,9.55,1.31,7.46.6,9.71.88,10.23,2.26.43,1.15-.52,2.52-.64,2.68-.51.72-1.4,1.39-3.88,1.82-2.44.43-6.02,1.06-9.91-.93-2.11-1.08-3.55-2.54-4.47-3.7-2.94.68-5.87,1.36-8.81,2.04.42,1.58,1.36,4.27,3.63,6.75,0,0,1.3,1.43,3.04,2.57,3.47,2.29,13.39,6.51,22.28,1.71,1.82-.99,6.65-3.59,7.95-9,1.13-4.68-1.09-8.54-1.35-8.97-1.89-3.18-4.77-4.53-5.91-5.05-4.12-1.87-9.19-1.84-14.06-1.81-1.69.01-4.03.09-5.34-1.45-.05-.06-1.14-1.38-.79-2.76.74-2.97,7.26-3.28,7.88-3.31,1.71-.08,4.53-.18,7.32,1.65,1.85,1.22,2.89,2.76,3.41,3.68Z"/>
</svg>