<?xml version="1.0" standalone="no"?>
<!DOCTYPE svg PUBLIC "-//W3C//DTD SVG 20010904//EN"
 "http://www.w3.org/TR/2001/REC-SVG-20010904/DTD/svg10.dtd">
<svg version="1.0" xmlns="http://www.w3.org/2000/svg"
 width="200.000000pt" height="206.000000pt" viewBox="0 0 200.000000 206.000000"
 preserveAspectRatio="xMidYMid meet">

<g transform="translate(0.000000,206.000000) scale(0.100000,-0.100000)"
fill="#000000" stroke="none">
<path d="M1032 1941 c-29 -101 -29 -152 1 -187 l23 -27 27 33 c34 40 35 92 4
183 -13 37 -26 69 -28 71 -3 3 -15 -30 -27 -73z"/>
<path d="M963 1729 c-20 -20 -15 -56 10 -80 22 -21 22 -21 0 -10 -50 26 -103
-4 -103 -58 0 -26 -4 -29 -43 -35 -58 -9 -138 -57 -180 -108 -68 -84 -114
-208 -119 -318 -1 -44 -1 -44 -5 -8 l-4 38 -30 -16 c-94 -48 -91 -262 6 -455
20 -38 34 -69 32 -69 -2 0 -18 22 -36 50 -49 75 -112 83 -144 18 -22 -44 -15
-75 19 -90 19 -9 28 -8 43 6 19 17 20 17 31 -23 14 -54 5 -85 -36 -113 -32
-22 -33 -23 -11 -30 12 -3 45 -7 72 -8 28 -1 43 -4 35 -7 -8 -3 -23 -15 -33
-27 l-18 -21 11 23 c11 22 10 23 -16 20 -33 -4 -74 -57 -74 -96 0 -14 -8 -34
-17 -45 -17 -19 -17 -19 7 -12 14 4 29 11 34 16 17 16 26 10 26 -16 0 -25 0
-25 31 -10 20 11 37 32 50 63 11 26 27 59 35 75 8 15 12 32 9 37 -4 6 12 9 42
9 45 -2 46 -2 13 -8 -28 -5 -39 -15 -59 -51 -27 -47 -33 -132 -12 -153 8 -8
11 -6 11 8 0 10 19 44 43 74 82 106 91 122 76 132 -10 6 -5 9 16 9 17 0 25 -4
20 -8 -6 -4 -32 -37 -58 -75 -54 -76 -55 -93 -4 -131 55 -40 58 -40 46 -9 -16
43 -2 93 38 130 l35 33 -21 35 c-15 26 -17 35 -7 35 7 0 16 -12 19 -27 8 -37
159 -188 180 -180 37 14 -39 237 -81 237 -11 0 -4 10 21 31 41 34 45 45 20 52
-12 3 -9 5 8 6 24 1 39 17 39 42 0 5 -15 9 -34 9 -36 0 -86 32 -86 55 0 28
-22 26 -88 -10 -37 -20 -57 -28 -44 -18 22 18 22 20 7 56 -20 49 -62 226 -71
300 l-6 58 33 -14 c21 -8 43 -29 57 -53 20 -34 22 -48 18 -112 -3 -39 -12 -88
-21 -108 -12 -30 -12 -40 -2 -67 l13 -32 29 30 c24 26 60 93 78 148 4 9 12 17
19 17 9 0 9 -3 2 -8 -6 -4 -16 -22 -22 -40 -11 -33 -11 -33 29 -51 42 -19 42
-21 -6 -47 -26 -13 -22 -53 8 -76 26 -21 97 -24 97 -5 -1 22 -27 60 -51 73
-13 7 -18 13 -11 14 23 0 72 -57 72 -85 0 -36 -22 -86 -58 -126 l-30 -34 22
-32 22 -32 30 18 c61 37 112 149 99 214 -4 18 -18 47 -32 65 -20 27 -22 36
-12 48 28 34 48 36 84 8 41 -31 42 -41 15 -94 -25 -50 -25 -103 0 -155 26 -54
89 -118 111 -112 15 4 15 1 -2 -37 -24 -52 -24 -68 0 -83 15 -9 25 -7 52 11
19 13 53 35 76 50 53 36 59 52 25 70 -15 9 -22 15 -17 15 6 0 25 -8 44 -18 23
-12 30 -20 21 -26 -9 -6 -9 -9 1 -16 10 -6 6 -9 -13 -9 -38 0 -42 -13 -12 -41
36 -34 54 -72 54 -115 l0 -38 25 34 c14 19 25 41 25 49 0 9 11 -1 25 -22 32
-46 49 -48 39 -5 l-7 33 42 -38 c51 -46 77 -51 55 -9 -24 47 -16 55 24 24 37
-30 103 -57 122 -50 6 2 -17 33 -51 71 -44 49 -68 67 -87 68 -17 1 -21 3 -9 6
9 2 17 7 17 10 0 7 -61 85 -109 138 -20 22 -24 30 -10 17 14 -12 29 -19 34
-15 4 5 5 3 2 -3 -6 -11 68 -103 75 -94 10 11 77 127 98 170 32 63 39 102 31
166 -8 54 -7 56 20 70 58 29 45 116 -17 122 -35 3 -50 -10 -71 -65 -12 -32
-13 -33 -8 -8 3 17 8 64 11 105 6 65 4 82 -14 116 -19 38 -83 104 -100 104 -4
0 -6 -21 -5 -47 2 -45 1 -44 -8 12 -35 229 -132 362 -285 395 -47 10 -51 13
-46 35 6 36 -6 73 -28 85 -27 14 -62 4 -119 -35 l-48 -33 -29 25 -29 25 29
-20 30 -20 42 32 c56 41 80 81 63 102 -9 11 -22 14 -43 9 -43 -9 -76 -9 -111
-1 -20 5 -34 3 -42 -5z m-50 -186 c-7 -2 -19 -2 -25 0 -7 3 -2 5 12 5 14 0 19
-2 13 -5z m67 -23 c21 -11 41 -24 45 -29 4 -8 -77 32 -94 46 -13 10 15 0 49
-17z m-58 -36 c35 -6 88 -45 88 -65 0 -4 -13 -3 -29 2 -38 13 -71 -3 -71 -35
0 -31 23 -49 57 -44 28 4 28 4 29 -57 0 -36 7 -76 18 -100 l19 -40 14 40 c7
22 16 66 20 98 5 48 9 57 23 52 26 -8 47 4 60 35 15 37 7 50 -31 50 -42 0 -33
20 21 48 128 66 302 -59 349 -252 7 -27 9 -51 6 -54 -3 -3 -5 2 -5 11 0 26
-32 21 -77 -12 -40 -29 -84 -80 -121 -141 -31 -52 -64 -80 -113 -94 -24 -7
-45 -18 -47 -25 -5 -16 66 -43 104 -39 18 2 30 0 28 -4 -3 -4 -14 -8 -24 -8
-28 0 -45 -36 -31 -67 10 -21 5 -19 -48 17 -33 22 -62 44 -66 50 -3 5 4 23 16
39 17 24 21 38 16 73 -3 23 -11 44 -17 46 -6 2 15 20 47 39 74 45 72 41 43 63
-24 18 -25 18 -95 -18 -91 -48 -86 -46 -83 -31 2 6 -35 32 -81 56 -69 36 -86
41 -100 31 -13 -10 -14 -10 -4 2 8 8 10 29 6 58 -5 37 -3 47 12 58 28 21 53
17 80 -12 l25 -27 0 27 c0 31 -32 66 -60 66 -12 0 -20 7 -20 17 0 28 -31 53
-65 53 -65 0 -107 -81 -92 -178 7 -42 61 -96 89 -89 9 3 15 0 13 -7 -3 -6 34
-28 80 -50 l84 -39 -25 -36 c-13 -19 -25 -51 -25 -71 -2 -30 -3 -31 -6 -8 -3
22 -11 29 -39 34 -33 6 -41 13 -109 103 -28 37 -92 80 -142 95 -17 5 -23 2
-27 -16 -3 -13 -3 9 -1 47 8 155 82 261 207 300 52 16 53 16 100 9z m-97 -163
c7 -12 -12 -24 -25 -16 -11 7 -4 25 10 25 5 0 11 -4 15 -9z m685 -263 c0 -100
-40 -298 -59 -298 -15 0 -52 72 -61 118 -15 82 2 139 61 207 47 53 59 47 59
-27z m87 -81 c-9 -110 -38 -219 -86 -321 l-39 -84 22 -23 c11 -13 6 -10 -11 6
-32 27 -43 42 -24 31 13 -8 71 128 96 229 13 50 26 125 30 168 4 42 10 77 13
77 3 0 2 -37 -1 -83z m-1070 -19 c-2 -18 -4 -6 -4 27 0 33 2 48 4 33 2 -15 2
-42 0 -60z m533 9 c-4 -18 -16 -46 -26 -62 l-19 -29 -3 39 c-3 33 1 44 23 62
14 13 28 23 30 23 1 0 0 -15 -5 -33z m-523 -79 c-3 -7 -5 -2 -5 12 0 14 2 19
5 13 2 -7 2 -19 0 -25z m773 -13 c0 -22 -2 -24 -14 -13 -10 9 -11 17 -4 26 15
17 18 15 18 -13z m-361 -56 c-32 -45 -44 -51 -45 -21 0 15 -4 34 -7 42 -11 24
33 40 54 20 15 -14 15 -17 -2 -41z m-402 29 c-3 -8 -6 -5 -6 6 -1 11 2 17 5
13 3 -3 4 -12 1 -19z m851 -92 c18 -9 38 -14 44 -10 7 4 -2 -17 -19 -48 -30
-52 -31 -56 -15 -74 9 -10 2 -5 -16 11 l-32 29 -15 -21 c-21 -30 -81 -65 -102
-60 -14 4 -13 5 4 6 22 1 103 65 103 81 0 4 -8 11 -17 14 -11 4 -27 -4 -47
-23 -17 -16 -44 -32 -61 -36 -25 -5 -23 -3 11 13 23 11 49 30 58 43 15 22 15
25 -1 36 -9 7 -27 13 -41 13 -13 0 -20 4 -17 10 3 6 17 7 30 4 29 -7 70 29 60
54 -5 13 -1 11 17 -5 13 -11 38 -28 56 -37z m289 32 c-3 -8 -6 -5 -6 6 -1 11
2 17 5 13 3 -3 4 -12 1 -19z m-27 -85 c-11 -17 -11 -17 -6 0 3 10 6 24 7 30 0
9 2 9 5 0 3 -7 0 -20 -6 -30z m-481 -12 c-39 -38 -51 -71 -26 -71 9 0 8 -3 -2
-9 -22 -14 -3 -31 37 -32 l37 -2 -35 -6 -35 -6 30 -28 c17 -16 49 -40 73 -54
23 -14 42 -27 42 -30 0 -12 -89 47 -127 84 -37 36 -43 48 -43 84 0 33 6 47 34
75 19 19 38 34 44 34 5 0 -8 -17 -29 -39z m-389 -66 c14 -19 14 -19 -2 -6 -10
7 -18 18 -18 24 0 6 1 8 3 6 1 -2 9 -13 17 -24z m841 -2 c-12 -20 -14 -14 -5
12 4 9 9 14 11 11 3 -2 0 -13 -6 -23z m-992 1 c6 4 11 5 11 3 0 -2 -33 -25
-72 -51 -40 -26 -63 -38 -51 -28 12 11 20 22 18 24 -3 3 1 5 8 5 25 0 66 34
60 51 -4 13 -3 14 5 3 5 -7 15 -10 21 -7z m210 -50 c14 -12 -19 -1 -35 12 -18
14 -18 14 6 3 14 -6 27 -13 29 -15z m747 -31 c-14 -26 -25 -45 -26 -41 0 12
43 98 48 94 2 -2 -8 -26 -22 -53z m-1096 -17 c0 -2 -12 -11 -27 -20 l-28 -17
24 20 c23 21 31 25 31 17z m750 -70 c0 -2 -8 -10 -17 -17 -16 -13 -17 -12 -4
4 13 16 21 21 21 13z m270 -91 c19 -7 28 -14 20 -14 -8 0 -28 6 -45 14 -39 17
-21 18 25 0z m-75 -15 c10 -11 16 -20 13 -20 -3 0 -13 9 -23 20 -10 11 -16 20
-13 20 3 0 13 -9 23 -20z m-1007 -15 c-6 -14 -13 -23 -15 -21 -5 5 15 46 22
46 3 0 -1 -11 -7 -25z m1165 8 c-7 -2 -21 -2 -30 0 -10 3 -4 5 12 5 17 0 24
-2 18 -5z"/>
<path d="M1212 1360 c-12 -5 -25 -16 -28 -25 -4 -8 -17 -15 -30 -15 -20 0 -54
-32 -54 -52 0 -4 14 -5 31 -1 66 13 106 -45 75 -108 -15 -29 -15 -33 2 -45 24
-18 24 -18 61 20 31 32 61 106 61 152 0 51 -69 94 -118 74z m46 -62 c-3 -7
-11 -13 -18 -13 -7 0 -15 6 -17 13 -3 7 4 12 17 12 13 0 20 -5 18 -12z"/>
<path d="M290 406 c-54 -15 -82 -29 -100 -51 -17 -20 -14 -22 48 -30 70 -9
115 7 141 50 10 18 17 36 14 39 -9 9 -53 6 -103 -8z"/>
<path d="M1155 266 c-16 -34 -85 -104 -155 -158 l-35 -27 40 0 c22 -1 53 6 69
14 20 11 33 12 40 5 5 -5 26 -10 45 -10 32 0 33 1 18 18 -25 27 -21 81 8 124
30 44 30 45 6 58 -17 9 -22 5 -36 -24z"/>
<path d="M936 206 c4 -23 1 -46 -10 -67 -9 -18 -14 -34 -11 -37 9 -10 55 18
55 33 0 18 12 19 27 4 11 -11 33 -5 33 10 0 10 -81 91 -92 91 -5 0 -6 -16 -2
-34z"/>
</g>
</svg>
